<?xml version="1.0" encoding="utf-8"?>
<!-- Generator: Adobe Illustrator 19.2.1, SVG Export Plug-In . SVG Version: 6.00 Build 0)  -->
<svg version="1.1" id="Layer_1" xmlns="http://www.w3.org/2000/svg" xmlns:xlink="http://www.w3.org/1999/xlink" x="0px" y="0px"
	 viewBox="0 0 476.1 670.9" style="enable-background:new 0 0 476.1 670.9;" xml:space="preserve">
<g>
	<path d="M136.1,626.4c-0.8,0.2,1.1,2.5,1.3,3C138.1,628.2,135.6,625.8,136.1,626.4z"/>
	<polygon points="142.5,614 142.9,615.1 142.8,611.7 	"/>
	<path d="M146.3,610.3l-0.9-0.8l1.5,3.9c1.7-1.9,2.9-5.9,5.2-5.7C148.4,604.1,149,610.6,146.3,610.3z"/>
	<path d="M161.6,613.6c0.2,0.1,0.3,0.2,0.5,0.3c0.2-0.2,0.5-0.3,1-0.5C161.7,611.9,163.3,611.2,161.6,613.6z"/>
	<path d="M162.1,613.9C161.1,614.7,163.6,614.8,162.1,613.9L162.1,613.9z"/>
	<path d="M166.1,610l-0.4,2.3c0.9,0.8,2.2,0.3,2.2,1.2C168.8,611.8,167.9,611.1,166.1,610z"/>
	<path d="M165.1,607.1c0.4,0.3,0.7,0.4,0.3-1.1L165.1,607.1z"/>
	<path d="M164.7,608c-0.7-1.3-0.2,0.1-0.3,1.3l0.6-2.2C164.5,606.6,163.6,605.2,164.7,608z"/>
	<path d="M161,606.6c-2.2,2.2,0.1,4.9,2.3,2.7C161.9,608.8,160.6,608.9,161,606.6z"/>
	<path d="M172.7,605.3c0.9,0.3,2.2,0.3,3.1,1.6c-0.5-1-2-2.1-2.8-3.2L172.7,605.3z"/>
	<path d="M173,603.7l0.5-2.5C172.1,601.8,172.3,602.7,173,603.7z"/>
	<polygon points="162.3,606 163.1,600.9 162.7,601.3 	"/>
	<polygon points="181.5,603.5 182,606.1 181.5,602 	"/>
	<path d="M185.1,600.8c0.4,2.1,2.6,2.4,2.6,3.9c0.8-0.9,0.8-3,0.8-4.8C188.1,601.2,187.1,601.5,185.1,600.8z"/>
	<path d="M176.4,600.1c0.5,0.5,1.6,1.8,2.8,1.9l-2.2-2.2C176.8,599.8,176.6,600,176.4,600.1z"/>
	<path d="M176.9,599.7L176.9,599.7c0.7-0.3,1.2-0.5,1.4-0.6C178.2,599.2,177.7,599.4,176.9,599.7z"/>
	<path d="M176.2,600.2c0.1,0,0.1,0,0.2-0.1C176.2,599.9,176.1,599.8,176.2,600.2z"/>
	<path d="M172.9,600.3l0.6-2.8l-2,0.4C172,598.5,172.9,599.3,172.9,600.3z"/>
	<path d="M180.7,597.8c0-0.1,0.1-0.2,0.1-0.2C180.5,597.4,180.4,597.4,180.7,597.8z"/>
	<path d="M181.4,598.1c0,0.1,0,0.1,0,0.2C181.9,598.7,181.7,598.4,181.4,598.1z"/>
	<polygon points="199.8,590 199.9,588 198.6,587.5 	"/>
	<path d="M202,555.5l-0.8,0.8C201.6,556.1,201.9,555.8,202,555.5z"/>
	<path d="M181.3,563.9c0.1-0.2-0.9-1.4-1.9-2.7c0,0,0.5,0.7,0.9,1.4C180.8,563.3,181.3,563.9,181.3,563.9z"/>
	<path d="M202.3,523.2c-0.5,0.6-0.7,1.2-0.6,1.9C202.2,524.5,202.5,523.9,202.3,523.2z"/>
	<path d="M133,607.8c-0.1-0.1-0.2-0.2-0.3-0.3C132.7,607.9,132.8,607.9,133,607.8z"/>
	<path d="M90,586c0.3-0.3,0.9-0.4,1.5-0.6C91.1,585.2,90.7,585.4,90,586z"/>
	<path d="M180.1,573.2c0,0.1,0.1,0.2,0.1,0.3C181.3,572.6,180.9,572.7,180.1,573.2z"/>
	<path d="M216.6,567.9l-0.9,0c0,0,0,0,0,0c0.3,0.3,0.7,0.5,1.1,0.6C216.7,568.4,216.6,568.2,216.6,567.9z"/>
	<path d="M215.9,565.6l-0.3-0.2c-0.2,0.2-0.2,0.7-0.1,1.3c0.3,0.2,0.6,0.4,0.9,0.6C216.2,566.7,216,566,215.9,565.6z"/>
	<path d="M238.2,585.1c0.1,0.6,0.2,1.4,0.5,2.1l1.5-6.2c-0.3,0.1-0.7,0.3-1,0.4L238.2,585.1z"/>
	<path d="M216.6,567.9l0.8,0c-0.3-0.2-0.7-0.4-1-0.6C216.5,567.6,216.5,567.7,216.6,567.9z"/>
	<path d="M216.8,568.6C216.8,568.6,216.8,568.6,216.8,568.6c0.5,0.3,0.6,0.6,1.3-0.1c0,0,0,0,0,0
		C217.6,568.7,217.2,568.7,216.8,568.6z"/>
	<path d="M138.3,606.8l0.2,0.1C138.4,606.8,138.3,606.8,138.3,606.8z"/>
	<path d="M203.8,557.7c0-0.2,0-0.3,0-0.6c0-0.2,0-0.3,0-0.5l-1-0.8C203,556.6,203.4,557.2,203.8,557.7z"/>
	<path d="M216.7,568.6c0,0.8,0.1,1.2,0.4,1.3C217.1,569.5,216.9,569.1,216.7,568.6C216.8,568.6,216.8,568.6,216.7,568.6z"/>
	<path d="M250.7,560.2c-2.2-3.6-2-4-5-7.6c0,0,0,0.3,0,0.6c0,0.3-0.1,0.6-0.1,0.6c-3.4-0.2-4.1-0.7-4.4-1.6
		c-0.2-0.9-0.1-2.2-1.3-3.4l0.6-0.2c-0.2-1.9-0.6-3.2-1-3.9c-0.3-0.6-0.7-0.7-1-0.9c-0.4-0.2-0.7-0.3-0.9-0.9
		c-0.3-0.6-0.4-1.7-0.5-3.8l-2.3,2.6c-2.8,2.3-2.6,0.7-2.5-1.9c0.1-1.3,0.2-2.8,0-4.1c-0.2-1.3-0.7-2.3-1.6-2.4c0,0-0.1,0.7-0.2,1.4
		c-0.1,0.7-0.2,1.4-0.2,1.4c-1.1,0.3-0.7-2.1-0.1-5.3c0.6-3.2,1.4-7.4,1.4-10c-0.1-0.4-0.4-0.7-0.6-0.8c-0.2-0.5,0.7-0.9,1.6-1.3
		c0.2,0.1,0.3,0.1,0.5,0.2c-0.1-0.3-0.1-0.6-0.1-0.8c-2.1-1.5-2.8-0.3-3.5,1.5c-0.7,1.8-1.7,4.2-4,4.8c0-1.2,0.9-2.8,1.3-4.1
		c0.5-1.3,0.6-2.3-1.1-2.4c-0.5-0.9-3.7,1.2-6.7,3c-3,1.8-5.8,3.3-7.9,1.1c0.9,1.8,1.6,3.5-0.4,5.1c-0.7,0.2-1.6-0.1-2.6-0.5
		c-0.2-0.1-0.5-0.2-0.7-0.4c-0.2-0.1-0.4-0.3-0.5-0.4c-0.4-0.3-0.7-0.6-1.1-0.8c-1.5-1-2.9-1.3-3.6,1.6c-0.3-0.5-0.4-0.9-0.5-1.4
		c-1.5,1.6-5,2.8-5.8,6c-2.3-11.5-9.6,6.3-10.3-4.3c0,0-1.2,0.2-2.4,0.5c-0.6,0.1-1.2,0.2-1.7,0.3c-0.2,0-0.5,0.1-0.7,0.1
		c-0.2,0-0.3,0-0.3,0l0.1-1.1c-2.4-0.2-4,0.4-5,1.4c-1,1-1.5,2.3-1.8,3.7c-1.2-0.6-0.8-1.6-0.8-2.2c-3.5-0.5-5.5-0.3-6.9,0.7
		c-1.3,1.1-2.2,3-2.7,6.7l-0.1-0.1c-0.8-0.8-1.5-1.6-2.3-2.4c0,1.3-2.5,1.6-5.2,3.2c-1.3,0.8-2.7,1.9-3.7,3.3
		c-1,1.4-1.8,3.2-1.8,5.2c-0.3-0.3-0.8-0.7-0.9-1.5c-0.2,1.2-0.2,1.8-0.6,2.4c-0.3,0.6-0.8,1.1-1.4,1.6c-1.2,0.9-2.7,1.7-4,2.4
		c-2.5,1.6-3.9,3.3,1,7.4l0.9,4.5c3.1-3.2,4.3,3.4,7.1,3c-0.3,1.8-5.6,1.8-5-0.4l0.7,0.1c-2.7-2.1-3.9-1.1-5,0l-5,5.3l6.1,5.2
		c-3.5-0.2-7.6-1.9-11.2-0.5c0.1,1.2,1.4,2.9,0.4,4.9l-4.1-5.6c-1.1,0.8,0.2,7.2-2.7,3.3c0.5,1,1.2,2.4,0.5,3
		c-6.1-1.9-11.7,0.4-17.3,2.2c-5.6,1.8-11.2,3.1-18.3-0.9c2.1,1.9,1.2,2.4,0,2.8c0.9,0.3,0.8,2.9,1.3,4.5l-5.9-3.2
		c0.4,4.7-4.9,1.8-4.2,6.1l1.2-1.2c-0.5,5.6,5.9,10.4,7.4,16.9c0.2-3.2,2.2-1.4,4.3,0c2,1.4,4.1,2.4,4.8-2.1
		c1.1,1.1-0.1,2.3,0.7,3.7c0.1-3,1.1-3.9,3.3-3.1l0,0.7c2.7-1,4.8-1,7-0.6c2.2,0.4,4.6,1,7.9,1.3l-1.1-3.2c1.4,0.2,1.9,1.1,2.7,1.8
		c0.5-5.2-3.8,0.5-3.6-5.2c1.6,3.1,3.9,2.7,6.3,2.3c2.3-0.3,4.6-0.5,5.9,3.2c2.1-0.3-1.3-3.7,0.8-4l0.9,1.9l0.1-2.7
		c1.4,0.2,2.6,2.6,2.9,4.4c-0.4-0.2-0.8,0.6-1.2,0.9c2,2,4.4-1.2,5.3-1l-2-0.9c3.5-1.8,7.7-1.8,11.7-2.8l0,1.4c0-1,2.7-0.1,1.8-1.4
		l-0.8-0.2c1.7-0.6,3.4-1.4,4.8-2.8l-0.6-1.5c3.9-3.4,3.6,1.3,8-0.5l-0.1,0.4c0.8-1.7,1.9-2.5,3.2-2.5c-1,1.9,2.5,3.4,1.2,5.5
		c1.2-1,1.9-1.6,2.3-2.1c0.2,0.5,0.3,1.1,0.3,1.8c0-0.7,0.1-1.6,0.1-2.4c0.4-0.9,0.4-1.7,1.1-3.7c0.6,0.3,1.2,0.5,1.7,0.7l0.1-0.6
		c0.1-0.2,0.1-0.4,0.2-0.6c0.1,0.1,0.2,0.3,0.4,0.4c0-0.1-0.1-0.2-0.3-0.4c0.5-1.6,0.8-2.6,2-3.3c0.2,0.1,0.4,0.2,0.5,0.2
		c-0.4,1,0,1.8,0.4,2.8c-0.3,0.7-1,1.2-2,0.8c0.1,1.6,1.2,1.2,2.3,0.4c0.1,0.6,0,1.2-0.3,1.9l-0.4-1l-0.3,1.3l0.6-0.1
		c-0.1,0.1-0.1,0.3-0.2,0.4c0.2,0.2,0.4,0.4,0.6,0.6c0,0.1,0.1,0.1,0.1,0.1l0,0c2.2,1.6,3.7,0.3,4.9-0.7c0.5-0.4,0.9-0.7,1.3-0.9
		c-0.1,0.2-0.2,0.5-0.2,0.8c0.2,0.1,0.4,0.4,0.7,0.6c0.1-0.4,0.1-0.9,0-1.4c0.2,0,0.4,0.1,0.7,0.3c-0.1,0.8-0.3,1.5,0,1.7
		c-0.1,0.4,0.1,0.6,1,0.4l0.2,0.1c0.1,0.2,0.1,0.4,0.2,0.6c0-0.2,0.1-0.3,0.1-0.5l0.7,0.3l0.4-4.4c0.3-0.6,0.7-1,1.1-1.4
		c0.6,1.4,1.3,2.7,2.2,3.6l0.5,0.5c-0.1,0.6-0.1,1.3,0,2.1c0.2-0.5,0.2-1.1,0.2-1.9l30.8,31.5l-28.8-56.4c-0.2-0.9-0.6-1.7-1.3-2.7
		l0,0.1c-0.5-0.8-1.5-0.1-2.3,0.1l0.1-0.8l-1.5-0.1c0-0.1-0.1-0.3-0.1-0.4c-0.1,0.1-0.2,0.3-0.2,0.4l-0.5,0l0.2,0.5
		c-1.6,2.2-1.6-1.2-3.3,3.5c0,0,0.9-0.1,1.8-0.1c0.9-0.1,1.8-0.2,1.8-0.2c-0.8,0.3-1.7,1.2-2.6,2c-1.1-0.7-2.5-1.1-3.9-1.2
		c0.5-0.4,0.9-0.7,1.3-1c-0.4-1.8-2.1,0.5-2.5-1.4c1-2.6,2.1-2.5,3.3-2.3c1.2,0.3,2.6,0.7,4.2-1.1c-0.2-2.5-4.8,2.7-2.1-2.7
		c-1.8,3.4-2.6,2.9-3.4,2.2c-0.6-0.6-1.3-1.3-2.6-0.5c0-0.1-0.1-0.7-0.1-1.5l0.2-0.5c-0.1,0-0.1,0.1-0.2,0.2c0-0.2,0-0.4-0.1-0.7
		c0-0.4-0.1-0.7-0.1-1c0.4-0.5,0.6-0.8,0.6-0.8c-0.2,0.2-0.5,0.4-0.7,0.5c0-0.5-0.1-0.8-0.1-1c0.5,0.3,1.3,0.6,2,0.9
		c0.7,0.4,1.4,0.8,1.8,1.1c0.7,0.3-0.2-0.6-1-1.8c-0.8-1.2-1.3-2.6-0.3-2c-0.3-0.5-0.6-1-0.7-1.5c0.1,0,0.2,0,0.2,0
		c0.6,0.1,1.4,0.8,1.9,1c0.5,0.2,0.7,0,0.6-1.8c0,0,0.6,1.2,1,2.4c0.5,1.2,0.9,2.4,0.9,2.4c0.1-0.6-0.4-2.1-0.9-3.7
		c-0.5-1.6-1.2-3.3-0.4-4.3c0.6-0.8,0.9,0.2,1,1.6c0.2,1.4,0.4,3.2,0.6,3.9c0-0.3,0-0.7,0.1-1c0-0.2,0-0.4,0.1-0.6
		c0-0.1,0-0.2,0-0.3l0.2-0.3c0.4-0.8,0.9-1.6,1.5-2.1c1.1-1.2,2.4-1.5,4,0.4c-0.9,1-1.6,0.3-2.5,0.7l2.3,2.6
		c-2.2,4.7-4.2,3.2-1.9,6.9c-0.4-9.5,8.2-1.5,7.8-11l1.5,1.9c-0.1,0-0.2,0-0.2,0c0,0,0,0,0,0c0,0,0,0,0,0c-0.2,0.1-0.3,0.4-0.6,0.4
		c0.3,0.4,0.5,0.7,0.7,0.8c0,0.1,0,0.1,0,0.2c0.1,0.5,0.2,1.2,0.4,1.9c0,0.8,0.1,1.8,0.4,3.2l-2.1-1.8c-0.4,0.7-0.3,2-0.2,3.1
		l0.3,4.2l-1.3,0l1.4,1.9l0.4,6.2l0.6-0.1c-0.3,0.3-0.6,0.6-1,0.6c0.7,1.4,0.6,0.1,1-0.6l0.5-0.1c1.6,3.3,2.1,1.6,2.6-0.2
		c0,0,0-0.1-0.1-0.1c0.2,0.1,0.3,0.4,0.1,0.9c-0.2,1.6,0.6,2.9,1.7,4c-0.4,1.2-1,2.1-2.1,2.1c3,3.1,0.2-0.7,4.1,2.8
		c-1.8-2-1.2-2.8-0.2-3.3c0.6,0.4,1.2,0.8,1.9,1.3c0.2,0.6,0.4,1.2,0.8,1.7c0.3,0.4,0.7,0.7,1.3,1c0.6,0.3,1.3,0.5,2.1,0.5
		c0-0.1-0.1-0.2-0.1-0.3l4.4,3.7l1.7-0.8c0.1,0.1,0.1,0.1,0.2,0.2c0,0-0.2,0.7-0.5,1.3c-0.2,0.7-0.5,1.3-0.5,1.3
		c1.4,0.3,2.7,1.9,4,3c1.3,1.2,2.6,2,3.6,0.9c-0.4,3.8,2.2,5.4,4.8,5.9c2.6,0.6,5.4,0.3,6.6,1.3l5.1-19.7c0-0.2,0-0.3,0-0.5
		c0-0.2,0-0.3,0-0.5l0.7-2.7c0.1,0,0.2-0.1,0.3-0.1l0.3-1.3c0.2-0.5,0.5-1,0.8-1.4c0.1,0.3,0.1,0.6,0.2,0.9l-0.3,1.4
		c0.5-0.2,0.9-0.3,1.4-0.5c1.8-0.7,3.1-1.6,1.9-4c2.5,0.7,1.9,2.1,3.6,2.5c0-0.5-0.3-1.8,1.4-1.5c1.7,0.3,1,1.3,1.1,2.2
		c2.3-1.6,1.9-3.2,0.1-4.7c-1.5-1.2-3.8-2.5-6.3-3.6c0-0.3,0-0.5-0.1-0.8c3.5-0.1,3.8-1.1,0.9-3.1c2.9,0.4,6.6,0.3,4.9,2.1
		c0.6-0.3,2.4-0.9,4.2-1.8c1.8-0.8,3.5-1.8,3.8-2.7c-1.2-1.1-2.6-1.9-4.2-2.2C254,562.7,251.6,560.7,250.7,560.2z M172.3,562
		c0.4,0.3,0.9,0.7,1.3,1c-0.3,0.6-0.6,1.3-0.9,1.9C172.6,564.1,171.9,563,172.3,562z M180.6,594.8c-0.1,0-0.2,0-0.3,0
		C180.4,594.8,180.5,594.8,180.6,594.8z M172.6,565.3c-0.1,0.5-0.2,0.9,0,1.4c-0.6,0.2-1,0.3-1.4,0.3l-1-3.6
		C171.5,563.5,172.1,564.4,172.6,565.3z M168.2,557c-0.1,0-0.1,0-0.2,0C168,556.9,168.1,557,168.2,557z M154.8,572.4
		c-0.1-0.1-0.1-0.3-0.2-0.4C154.6,572.1,154.7,572.3,154.8,572.4z M184.9,593.8l0.2-1.9c0.2,0.6,0.5,1.2,0.8,1.8
		C185.5,593.7,185.2,593.7,184.9,593.8z M189.4,570.8l-0.1,0.4c-0.1-0.1-0.3-0.1-0.4-0.1C189,571.2,189.2,570.9,189.4,570.8z
		 M177.1,567.3c-0.4,0.2-0.8,0.6-1.2,1.1l0.9-2.2C176.9,566.6,177,567,177.1,567.3z M174.6,566.6c0,0,0.6-0.8,1.2-1.6
		c0.2,0.3,0.5,0.5,0.7,0.8C175.9,566.3,175.1,566.8,174.6,566.6z M204.9,554.6c-0.1,0.1-0.2,0.1-0.3,0.1L204.9,554.6z M210.7,552.7
		C210.7,552.7,210.7,552.7,210.7,552.7c-0.1,0.2-0.2,0.4-0.3,0.5C210.4,553,210.4,552.8,210.7,552.7z M217.2,570c0,0,0,0.1,0,0.1
		c-0.5-0.4-0.9-0.8-1.3-1.2c-0.1-0.3-0.1-0.6-0.2-0.9c0,0,0,0,0,0l0,0c-0.1-0.4-0.1-0.8-0.2-1.2c-0.2-0.1-0.3-0.2-0.5-0.3
		c0-0.4,0.1-0.8,0.4-1.2l0.2,0.1c0.1-0.1,0.1-0.1,0.2-0.1c0,0.1,0,0.2,0.1,0.3l1.4,1l0.6,1.3l-0.5,0c0.1,0,0.1,0.1,0.2,0.1
		c0.2,0.1,0.3,0.2,0.5,0.3c0,0,0,0.1,0,0.2c0,0,0,0,0.1,0c0,0,0,0-0.1,0.1c0,0.4-0.1,0.8-0.1,1.3c0,0,0,0.1,0,0.1
		c0.2-0.1,0.4-0.2,0.7-0.4l0.2,0.5c0,0.1,0,0.2,0.1,0.3c-0.3,0-0.6,0.1-1,0c0-0.1,0-0.3,0-0.4C217.7,570,217.4,570,217.2,570z
		 M219.8,567.9c0.1,0.2,0.2,0.4,0.2,0.6c0,0-0.1,0-0.1,0.1l0.1,0.1c0.1,0.2,0.1,0.3,0.2,0.5c0,0,0,0,0,0.1c-0.2-0.1-0.4-0.2-0.6-0.2
		l0-0.1c0.1-0.1,0.3-0.2,0.4-0.3l-0.9-0.6l0,0L219.8,567.9z M218.3,566.4L218.3,566.4c0-0.1,0-0.2,0-0.3
		C218.3,566.2,218.3,566.3,218.3,566.4z M212.5,558.3l-0.4-0.3c0.1-0.1,0.1-0.1,0.2-0.2l0.5,0.4
		C212.7,558.2,212.6,558.2,212.5,558.3z M220.6,557.7c-0.8,0-1.5,0-2.3-0.1C219.3,557.5,220,557.6,220.6,557.7
		C220.6,557.7,220.6,557.7,220.6,557.7z M204.5,561.1c-0.4-1.3-0.6-2.1-0.6-2.1c0.3,0.6,0.8,1.3,1.4,2.1
		C205.1,561.1,204.8,561.1,204.5,561.1z M209.3,551.9c0-0.2,0.1-0.5,0.1-0.7c0.2-0.9,0.5-1.7,0.7-2.2c0.6,1.3-0.3,1-0.1,2.2
		c0,0,0.3-0.6,0.6-1.2c0.3-0.6,0.7-1.2,0.7-1.2c0.1,0.4,0.1,0.7,0,1.1c-0.5,0.8-0.7,1.7-0.7,2.8c-0.6-0.1-1.2-0.1-1.7,0
		c0,0,0-0.1,0-0.1C209.2,552.4,209.3,552.2,209.3,551.9z M206.9,554c-0.1,0.2-0.2,0.5-0.3,0.8c0,0-0.2-0.2-0.4-0.6L206.9,554z
		 M200.6,552.4c1.3,0.6,2.2,2,1.5,3.1l1.7-1.7c0,0.3,0,0.7,0,1c0,0.6,0,1.3,0,1.8l4.7,3.5c-0.6,0.2-1.2,0.4-1.8,0.6
		c-0.1-0.1-0.2-0.2-0.3-0.3c-0.7-0.7-1.4-1.4-2.1-2.2c-0.2-0.2-0.3-0.4-0.5-0.6c0,0.3,0,0.5,0,0.5c-1.6-0.4-2.9-0.8-3.8-1.5
		c-0.2-0.1-0.3-0.3-0.5-0.4l0-0.2l0,0.1c-0.5-0.6-0.9-1.5-0.9-2.8C199.1,552.6,199.7,552.1,200.6,552.4z M198,555.9
		c0-0.2,0.1-0.4,0.2-0.7C198.1,555.5,198,555.7,198,555.9z M243.1,571.2c-0.4-0.2-0.8-0.4-1.2-0.5l0-0.1c0.3,0,0.7,0,1,0
		C243.1,570.8,243.1,571,243.1,571.2z"/>
	<path d="M179.1,560.7C179,560.7,179,560.7,179.1,560.7c0.1,0.2,0.2,0.3,0.3,0.5L179.1,560.7z"/>
	<polygon points="80.6,583.1 82.4,585.1 82.7,584.1 	"/>
	<path d="M79.5,590.1c0.3-0.3,0.9-0.9,1.5,0l-1.7-4.2L79.5,590.1z"/>
	<path d="M183.9,565.9C183.9,565.9,183.9,565.9,183.9,565.9C183.9,566,183.9,566,183.9,565.9z"/>
	<path d="M183.6,564.6c-0.1-0.6-0.2-0.6,0.3,1.9c0,0.1,0-0.4,0-0.5C183.8,565.8,183.7,565,183.6,564.6z"/>
	<path d="M274.9,349.8c0.5-0.5,0.7-0.6,1.1-0.8c0.6-1,1.5-2.5,3.1-4.8C276.4,344.8,281,337.9,274.9,349.8z"/>
	<path d="M276,349C273,354.1,279.4,346.6,276,349L276,349z"/>
	<path d="M289.3,325.3l-2.6,7.5c1.8-0.8,5.7-6.5,5-3.9C295.1,321.6,293.3,322.4,289.3,325.3z"/>
	<path d="M290.1,317.1l-1.5,3.8C289.3,320.6,290,319.7,290.1,317.1z"/>
	<path d="M287,324.5c-0.9-1.4-0.6,0.8-1.6,4.4l3.2-8.1C287.3,321.4,285.9,320.7,287,324.5z"/>
	<path d="M278.1,332.7c-7.2,13-3.1,13,4.1,0C279,335.8,275.5,340.3,278.1,332.7z"/>
	<path d="M311.6,286l-2,5.5c2.2-2.1,5.7-6.5,7.2-6C316.2,284.5,313.1,286.2,311.6,286z"/>
	<path d="M311.6,286l2.9-8.3C310.3,284.2,310.4,285.8,311.6,286z"/>
	<polygon points="286.1,313 281.9,327 287.4,310.7 	"/>
	<polygon points="333.7,263.1 335.1,253.8 334.1,257.7 	"/>
	<path d="M349.8,240.4c2.8-5.2,3.9-10.4,5-15.1c-1.8,4.6-4.7,8.8-9.6,13.6C345,243.1,350.7,236.6,349.8,240.4z"/>
	<path d="M356.8,217.7c-0.8,2.3-1.4,4.9-2,7.7C355.7,222.9,356.4,220.4,356.8,217.7z"/>
	<path d="M322.7,265.6c0.9-0.2,3-0.4,6.1-4.2l-4.3,1.3C323.9,263.6,323.3,264.6,322.7,265.6z"/>
	<path d="M324.3,262.8l0.1-0.1c2-3.1,3.4-5.2,4-6.1C327.9,257.4,326.7,259.3,324.3,262.8z"/>
	<path d="M322.2,266.3c0.2-0.3,0.3-0.5,0.5-0.7C322.2,265.7,322,265.8,322.2,266.3z"/>
	<path d="M297.8,287.6c-0.2,4.2,4.1,0,2.3,7.7C301.4,290.1,305.3,280.3,297.8,287.6z"/>
	<path d="M313.5,277.3l3.4-9.4l-5.4,7.4C312.2,275.6,314.1,274.8,313.5,277.3z"/>
	<polygon points="316.8,267.9 318.8,265.2 318.3,263.6 	"/>
	<path d="M346.2,229.5c1-4,3.1-7.8,5.5-12c-3.2,4.1-6.3,8.5-9,12.9C343.1,231.5,343.4,234.3,346.2,229.5z"/>
	<path d="M335.3,245.5c0.1-0.3,0.2-0.6,0.3-0.8C335.2,245,334.9,245.3,335.3,245.5z"/>
	<path d="M376.8,176.7c-0.3,0.1-0.6,0.2-0.9,0.4c0.1,0.1,0.2,0.3,0.3,0.4L376.8,176.7z"/>
	<path d="M341.8,230.8c-2.5,3-3.1,5.4-3.5,7.8c1.3-2.7,2.7-5.4,4.5-8.2C342.5,229.9,342.3,229.7,341.8,230.8z"/>
	<path d="M362.6,205.6c-1.6,1.4-3.3,3.1-5,4.9C359.5,209.3,362.9,206.6,362.6,205.6z"/>
	<path d="M337.1,244c-0.1,0.2-0.1,0.4-0.2,0.6C338.1,243.8,337.7,243.8,337.1,244z"/>
	<path d="M337.1,244c0.7-1.9,0.9-3.7,1.2-5.4c-1,2.2-1.9,4.2-2.6,6.1C336.1,244.4,336.6,244.1,337.1,244z"/>
	<path d="M376.5,167.8c-0.2,0.2-0.4,0.4-0.5,0.5c-0.6,0.5-1.2,1.2-1.9,1.9c-1.4,1.4-2.9,3-4.3,4.3c-2.8,2.6-5,4-4,0.1
		c2.5-5.4,4-7.4,5.4-8.5c0.9-0.6,1.5-1.1,2.4-1.7c0.9-0.7,1.9-1.5,3.3-3c-1.7,1-2.1,0.3-2-1.1c0.1-1.5,0.6-3.7,1.1-5.8
		c0.5-2.2,0.8-4.2,0.6-5.5c-0.3-1.3-1.1-1.9-3-1.3c0,0-0.8,2.2-1.6,4.3c-0.9,2.3-1.8,4.6-1.8,4.6c-0.4,0-0.5-1-0.7-1.5
		c-0.2-0.6-0.6-0.9-1.7,0.2c1.2,0.6,1.2,3.3-0.4,7c-1.5,3.6-4.1,7.6-7.7,10.6c-2.8,8.5,8,8.4,16.3,4.6c-0.4-0.4-0.9-0.8-0.8-2.1
		c0-0.7,0.2-1.6,0.6-2.8c0.2-0.6,0.4-1.4,0.7-2.2c0.1-0.4,0.3-0.9,0.5-1.3c0.3-0.7,0.6-1.3,0.9-2.1c-0.2,0.2-0.5,0.5-0.8,0.8
		C376.8,167.5,376.7,167.7,376.5,167.8z"/>
	<path d="M366.7,191.6l-1.7,3.3c2.6-3.3,5.2-5.3,9.9-8.9c2.1-6,1.9-7.6,1.3-8.4l-9.9,15.3L366.7,191.6z"/>
	<path d="M353.2,199.7c-5.5,9.4-1.8,7.8-4.1,14c8.6-15.3-1.2,5.2,6.9-4.7c-1.4,3.2-2.9,5.9-4.3,8.5c2-2.5,4-4.9,5.9-7
		c-0.1,0.1-0.2,0.2-0.4,0.2l0,0.1c0,0,0,0,0,0c-0.7,0.4-1,0.5-0.4-0.1c0-0.1,0.1-0.3,0.1-0.3c-0.3-0.3-0.4-0.8-0.6-1.3
		c3.2-4,1.1-0.3,0.6,1.3c0.1,0.1,0.1,0.3,0.3,0.4c0,0,0,0,0.1,0l7.8-15.8c-2.3,2.9-4.7,7-8.7,14.2
		C355.3,205,358.9,196.8,353.2,199.7z"/>
	<path d="M297.2,276.2c0.5-0.3,0.7-0.2,0.9-0.1C298.4,274.9,298.4,274.4,297.2,276.2z"/>
	<path d="M312.5,267.6c0.3,0,0.6-0.1,0.8-0.1C313.4,267.2,313,267.3,312.5,267.6z"/>
	<path d="M302.6,271c-0.3,1.3,0.2,2.8-2.3,6.2c-2.7,2.6-1.2-0.8-2.2-1.1c-0.6,2.5-2.7,8.6,2.6,2.7l0.3-1.3c3.6-4.3,9.3-8.8,11.4-9.9
		C309.5,268,306.9,268.6,302.6,271z"/>
	<path d="M329.3,230.9l1.5,0.5c-4.9,6.8-2.3,6.2-1.8,7.8l6.4-13.2L329.3,230.9z"/>
	<path d="M380.8,171.1c0,0.1-0.1,0.2-0.1,0.2c-0.1,0.2-0.1,0.3-0.2,0.5c-0.1,0.4-0.3,0.8-0.4,1.1c-0.6,1.6-1.1,3.1-1.1,3.1l1.7,3.3
		c0,0,0.1-2.4,0.3-4.8c0.1-1.2,0.1-2.4,0.2-3.3c0-0.1,0-0.3,0.1-0.4c0-0.2,0.1-0.3,0.1-0.4c0.1-0.3,0.1-0.5,0.2-0.7
		c0.1-0.4,0.1-0.6,0.1-0.6s-0.3,0.6-0.7,1.5C380.9,170.8,380.8,171,380.8,171.1z"/>
	<path d="M394.6,152.7c0.6,0.3,1.2,0.7,1.2,0.7s0.7-1.9,1.3-3.8c0.6-1.8,1.3-3.7,1.3-3.7l-5.1,6.1
		C393.3,152.1,393.9,152.4,394.6,152.7z"/>
	<path d="M276.1,146.3c0.9,0.1,1.8,0.3,1.8,0.3c-1.7-0.4-2.8-0.5-3.7-0.6c0,0,0.2,0,0.6,0.1C275.2,146.1,275.7,146.2,276.1,146.3z"
		/>
	<path d="M201.8,376.3c-2.6,6.2-6.7,13.1-3.5,12.3l3-1.9C200.8,382.4,201.2,379.1,201.8,376.3z"/>
	<path d="M204.7,114c-4,1.9-7.4,5.1-9.5,8.9c1.2-1,2.5-1.9,3.8-2.7c4.5-4.5,10.3-7.8,18.2-9.3C213.1,111.1,208.6,112,204.7,114z"/>
	<path d="M204.3,460.1c-1.3,0.3-3.4,1.1-6.8,2.8C199.1,462.1,201.8,461.1,204.3,460.1z"/>
	<path d="M361.8,100.9C368.8,100.4,363,100.5,361.8,100.9L361.8,100.9z"/>
	<path d="M381.7,112c-1.5,0.4-2.7,0.9-3.6,1.6C379.2,112.9,380.4,112.3,381.7,112z"/>
	<path d="M371.3,101.8c-2.3-0.3-5-0.4-8.1-0.5C364.5,101.5,367,101.7,371.3,101.8z"/>
	<path d="M370.8,100.4c2.3,0,4.1,0,5.8,0C377.8,99.9,377.2,99.6,370.8,100.4z"/>
	<path d="M361.8,100.9c-2,0.1-4.9,0.3-9.6,0.6c3.9-0.2,7.5-0.3,10.9-0.2C361.9,101.2,361.4,101,361.8,100.9z"/>
	<path d="M423.2,100.8l-0.2,0c-0.1,0-0.2,0-0.3,0c-0.2,0-0.5,0.1-0.7,0.1c-1.7,0.3-3,0.6-3.6,1.1c-0.3,0.2-0.5,0.5-0.5,0.8
		c0,0.1,0,0.2,0,0.3c0-0.1-0.1-0.1-0.1-0.2c-0.2-0.3-0.5-0.5-0.9-0.8c-0.7-0.4-1.6-0.8-2.6-1c-2.1-0.5-4.7-0.6-7.5-0.8
		c-2.8-0.1-5.8-0.2-8.9-0.6c-3.1-0.3-6.3-0.9-9.9-2c-0.4,0.7,0.6,1.4-0.2,1.8c-0.9,0.5-3.5,0.7-11.2,0.7c-1,0.5-3.1,1.1-4.3,1.5
		c-0.4,0-0.6,0-1-0.1c0.3,0,0.5,0.1,0.8,0.1c-0.8,0.3-0.9,0.3,0.3,0c3.3,0.5,5.6,1.1,6.1,1.9c-5,1.8-12.8,3-20.2,4
		c-3.6,0.5-7.3,0.9-10.5,1.3c-1.6,0.2-3,0.4-4.3,0.7c-0.6,0.1-1.2,0.2-1.8,0.4c-0.3,0.1-0.4,0.1-0.6,0.2c-0.2,0.1-0.3,0.1-0.5,0.2
		c-5.6-0.4,2.3-1.7-0.9-3.1l-7.5,2.9c-0.9-3.1-15.2-4.4-2.1-7l-11.9,0.5c-7.1-1.4-16.8-1.5-22.6,0.1c-5.6-0.4-13.9,4.3-9.2,1.6
		l-9.6,1.6c0.4-0.9,0.9-1.7,1.3-2.6c0.5-1.3,1.1-2.6,1.5-3.9c0,0,1,0.6,2,1.2c1,0.6,1.9,1.2,1.9,1.2c0.9-3.2,1.2-5.6,1.2-7.5
		c0.1-1.9-0.2-3.3-0.5-4.5c-0.6-2.4-1.4-4.1-2.2-7.7c0.2-3.4,0.3-6.1,0.5-8.5c0.1-1.2,0.1-2.2,0.3-3.2c0.1-1,0.2-1.9,0.3-2.7
		c0.1-0.8,0.3-1.6,0.5-2.3c0.2-0.7,0.3-1.4,0.5-2c0.4-1.3,0.8-2.4,1.1-3.6c-1.3-3.2-2.3-5.3-3.2-6.5c-0.8-1.2-1.3-1.6-1.5-1.5
		c-0.4,0.3,0.2,2.6,0.4,4.7c0.2,2.2,0.1,4.1-0.8,3.8c-0.4-0.1-1.1-0.8-2-2.2c-0.5-0.7-1.2-1.6-1.9-2.7c-0.4-0.5-0.8-1.1-1.3-1.8
		c-0.5-0.6-1.1-1.3-1.7-2c-1-1.7-2.4-3.2-3.7-4.6c-1.3-1.4-2.8-2.6-4.3-3.8L240.3,24l-1.6,34c-0.4,9.4,1.1,17.6,3.2,29.9
		c-1.6,8.8-2.7-1.6-4,1.6l2.7,6.1c-0.2,0.2-0.4,0.4-0.7,0.6c-0.4,0.1-0.7,0.3-1.1,0.7c-0.2,0.2-0.3,0.4-0.6,0.6
		c-0.1,0.1-0.2,0.3-0.4,0.4c-0.3,0.3-0.5,0.5-0.8,0.8c-1.2,1.3-2.7,2.5-4.2,4c-0.7,0.7-1.6,1.4-2.4,2.1c-0.9,0.7-1.7,1.4-2.6,2.2
		c-1.3,1-2.6,2-3.9,3c-2.4,0.1-4.8,0.4-6.9,0.8c2-0.1,4-0.1,5.8,0c-1.2,0.9-2.3,1.7-3.5,2.6c-7,0.9-14,2.8-20.5,6.7l-1.3,1.3
		c-0.4,0.5-0.8,0.9-1.2,1.4c-0.8,1-1.5,2-2.2,3.1c-1.4,2.2-2.6,4.6-3.7,7.3c-2.1,5.4-3.4,11.9-3.6,20.2c0,0-0.7,0.8-1.3,1.6
		c-0.6,0.8-1.3,1.7-1.3,1.7c0.1,0.8,0.2,1.7,0.3,2.6c0.1,0.7,0.2,1.3,0.3,2c0,0.4,0.1,0.9,0.1,1.3L87.4,196l100.3-9.8
		c-2.6,4.9-1.9,13.9-0.5,23.4c0.3,1.9,0.6,3.8,0.9,5.6l-1.4,1l1.6-0.2c0.5,2.9,0.9,5.8,1.3,8.5c0.7,4.8,1.3,9.2,1.2,12.6l3.6,0.2
		c0.3,4.7,0.9,9.4,1.7,14.2c0.8,4.9,1.8,10.1,2.9,15.9l3.1-0.9c1.7,5,1.5,11.6,1.1,18.9c-0.2,3.7-0.5,7.5-0.7,11.5
		c-0.2,3.9-0.2,8,0,12c-1.3-1-1.1-5.1-0.5-8.1c-3.1,9.8-1.4,19.8,0.4,29.7c0.5,2.5,0.9,4.9,1.3,7.4c0.4,2.4,0.7,4.8,0.9,7.2
		c0.3,3.7,0.3,7.3-0.3,10.7l-7.3,6.5l6.5,7.4c0,0.1,0,0.3,0,0.4c-0.5,1.9-1.1,3.9-1.7,6c0.8-1.8,1.4-3.6,1.7-5.1
		c0.1,3.4,0.4,8.4,1.2,13.4l-3.4,2.1c0,0.4,0,0.7,0.1,1.2c-1.3,4.9,1.6,3.9,4.1,1.4c0.6,2.5,1.2,4.8,2,6.6c-1.9,1.3-2.3,3.3-2.2,5.5
		c-7.1,4.9-13,10.9-16.5,18.1c-2,4.1-3.3,8.7-3.3,13.3c-0.1,1.2,0,2.3,0.1,3.5c0,0.3,0.1,0.4,0.2,0.6l0.3,0.6l0.7,1.1
		c0.4,0.8,0.9,1.6,1.3,2.5c0.4,0.9,0.9,1.8,1.3,2.8c3.6,2.6,7.2,5.3,10.5,8.1l2.4,2.2l2.2,2.3l0.5,0.6l0.3,0.4l0.6,0.8
		c0.2,0.2,0.4,0.5,0.6,0.8l-0.1,0.5c-0.6,0.3-1.3,0.5-2,0.8c1.1-0.2,1.6,0,1.8,0.4l-0.6,4l-21.8,3.4c-2.3,5.8-22.7,8.7-23.3,13.7
		l6.4-3.2c-7.1,8.2,16.5,6.3,17.6,13c7.9-9.3,29.5-1.5,42.9-15.6c4.1-0.1-2.3,3.2,0.1,3.9c0.8-1.1,1.7-2,2.8-2.9l12.3-9.9l-6.6-6
		c-1.7-1.5-3.2-3.4-4.9-5.7c-1.4-2-3-4.4-4.9-7.3c1.3-1.6,2.5-3.2,3.5-4.9c0.7-1.2,1.3-2.4,1.8-3.7c0.1,0.1,0.1,0.2,0.1,0.3
		c0,0-0.1-0.1-0.1-0.3c0.4-1,0.7-2,0.9-3.1c0,0,1.3,0,2.5-0.1c1.2-0.1,2.5-0.2,2.5-0.2s0.2-3.7,0.4-7.2c0-3.6-0.1-7.1-0.1-7.1
		c1.4-1.5,2.5-2.9,3.5-3.9c1-1,1.8-1.7,2.5-1.9c1.3-0.4,2.1,1.1,2.2,5.4c0.3-2.5,0.5-4.6,0.7-6.4c0.2-1.8,0.3-3.3,0.5-4.6
		c0.2-1.8,0.5-3.2,0.6-4.5c1.1-0.7,2.3-1.5,3.4-2.4c3.9-3,7.7-6.8,10.5-11l9.3-13.8l-17.3-4.8c-0.5-0.1-1.1-0.3-1.6-0.5
		c0.1-0.3,0.3-0.5,0.5-0.7c0.9-1.4,1.7-3.5,2.5-6c0.7-2.5,1.4-5.6,2-8.9c0.2-1.1,0.4-2.3,0.5-3.4c3.5-3.3,6.8-6.9,10-10.6l-4.1-21.3
		c0.2-0.1,0.4-0.3,0.7-0.4c0.1-0.1,0.3-0.1,0.4-0.2c0,0,0.1-0.1,0.1-0.1l0,0l0,0c0,0-0.1,0-0.1-0.1c0-0.1-0.1-0.1-0.1-0.2
		c0-0.1,0-0.2-0.1-0.4c-0.2-1.2,0-3.6,0.7-5.6c0.1-0.5,0.4-1,0.5-1.5c0.1-0.2,0.2-0.4,0.3-0.7c0.1-0.2,0.3-0.6,0.5-0.9
		c0.7-1.3,1.6-2.6,2.6-4c1-1.4,2.1-2.9,3.3-4.5c1.2-1.6,2.4-3.3,3.6-5l-2.6,0.5c2.2-3.1,4-5.5,5.5-7.6c1.6-2.2,2.8-4.1,4-5.7l6-8.6
		l-10.1-5.8c-2.5-1.4-4.3-2.7-6.6-4.3c0-0.1,0.1-0.2,0.1-0.2c1.1-1.8,2.8-3.5,4.7-4.8c-1.2,2,1,1.5,2.8,1.4c0.5,0,0.9,0,1.3,0
		c0.4,0.1,0.7,0.2,0.9,0.3c0.4,0.3,0.4,0.8-0.3,1.8c0.4-0.4,0.8-0.7,1.2-1c0.4-0.3,0.7-0.5,0.9-0.8l20.2-18.6l-18.4-7.4
		c-3-1.2-5.1-2-6.7-2.5c2.7-1.5,5.1-3,7.3-4.4c4.6-3,8.3-5.8,12.2-7.1l34.7-12l-31-8.8l0-1c0.4,0,0.7,0,1.1,0l-0.4-17.7l0,0.2
		c9.3-0.8,11.2-2.2,12.2-3.8c0.9-1.6,0.9-3.4,6.2-3.9l-0.2-1.5c0,0,0,0,0,0l0.2,1.5c0,0,0,0,0,0l-0.2-1.5c0.1,0,0.1,0,0.2,0
		l-2.2-17.1c-0.1,0-0.1,0-0.2,0l-0.2-1.5c0,0,0,0,0,0l0.2,1.5c0,0,0,0,0,0l-0.2-1.5c-1.4,0.2-3.2,0.2-5.4,0.3l5-3.8l-0.2-1.3
		l-7.2,1.8l1.6-4.1c-7.4,2.9-11.3,3.7-16.7,3.8l0-0.4l17-7.9l-28.9,1.6c0-1,0-2,0-2l-1.4-0.6c0,0,0.4,1.2,0.7,2.4
		c0,0.1,0,0.1,0.1,0.2l-10.1,0.6c0,0,0,0-0.1-0.1c-0.8-1-0.5-1.5,1.3-1.4c0,0-0.7-0.1-1.7-0.4c-1.1-0.2-2.4-0.6-3.8-0.9
		c-0.7-0.2-1.4-0.4-2-0.5c-0.6-0.2-1.2-0.4-1.8-0.5c-0.3-0.1-0.6-0.2-0.8-0.3c0-0.6,0-1.1,0.1-1.6c-0.1-0.1-0.2-0.1-0.4-0.2
		c0,0,0.1,0,0.1,0c0.1,0,0.1,0.1,0.2,0.1c0.2-4.4,0.3-7.1,0.3-11.3c0.8,0,1.3,0.1,1.8,0c0.5,0,0.9,0,1.4,0.1c0.1,0,0.2,0.1,0.4,0.1
		c0.1,0,0.1,0.1,0.2,0.1l0.2,0c0,0,0.1-0.1,0.2-0.1l0.3-0.2c0.8-0.5,1.6-1.1,2.4-1.7c0.8-0.6,1.7-1.2,2.6-1.9
		c-0.5,0.2-1.3,0.7-2.4,1.3c-1.1,0.6-2.3,1.3-3.7,1.9c-0.1,0-0.3,0-0.4-0.1l-0.3-0.2c-0.2-0.1-0.5-0.2-0.8-0.3
		c-0.5-0.2-1.1-0.4-1.8-0.6c0-1.7,0-3.6-0.1-6l-0.8,3.5c-0.7-0.7-1.3-1.3-1.7-2c0.3-0.3,0.6-0.7,1-1c0.5-0.6,1.1-1.3,1.6-1.9
		c0.3-0.4,0.7-0.9,1-1.4c3.9-0.2,7-0.6,9.7-1.2c-0.2,0.2-0.3,0.4-0.5,0.6c0,0,0.1-0.1,0.3-0.2c0.2-0.1,0.4-0.3,0.6-0.5
		c13.8-3.1,14.4-9.8,33-7.4c9.3,3.2,0.8,7.5,3,10c-11.8,2.1-18.4-1.3-26.5-0.7l10,1.2c-3.7,1.5-11.6,2.9-16,2.1
		c3.9,1.5,15.5,0.9,28.8,0.3c6.7-0.3,13.7-0.7,20.5-0.8c3.4-0.1,6.7-0.1,9.8,0c0.8,0,1.5,0,2.3,0.1c0.8,0,1.5,0.1,2.2,0.1
		c1.3,0.1,2.6,0.2,3.7,0.3c1.8-0.7,4.3-1.5,6.2-2.3c1.9-0.8,3.1-1.5,1.9-2.2l-7.1,0.9c-1.5-0.7-1.5-1.3-0.5-1.9
		c0.9-0.6,2.7-1.2,4.5-1.7c3.5-1,7-1.8,2.1-2.3c5.9-1.4,12.8-3.1,20.7-4.3c3.9-0.6,8-1.1,12.1-1.4c4.1-0.3,8.2-0.4,11.9-0.1
		c0,0-0.8,1.1-1.6,2.2c-0.6,0.8-1.3,1.6-1.6,2c0.3-0.6-1.2-1-3.7-1.2c-2.7-0.2-6.5,0-9.5,0.8c2.2-0.6,4.5-0.6,6.7-0.3
		c2.2,0.3,4.4,0.8,6.6,1.2c1.1,0.2,2.2,0.4,3.4,0.5c0.6,0,1.2,0.1,1.8,0.1c0.3,0,0.7,0,1,0c0.3,0,0.9-0.2,0.5,0.2
		c-1.2,2.1-1.4,3.5,0.1,3.8c0,0,2.8-3.1,5.6-6.3c0.4-0.4,0.7-0.8,1.1-1.2c0.2-0.2,0.4-0.4,0.5-0.6l0.3-0.3l0.1-0.1l0,0l-0.1,0
		c-0.4-0.2-0.7-0.3-1-0.4c-0.6-0.3-1.1-0.4-1.1-0.4c1-0.2,2.1-0.4,3.1-0.6c0.5-0.1,1.1-0.2,1.6-0.3l0.4-0.1c0.1,0,0.3-0.1,0.2,0
		l-0.1,0.4c-0.3,1.1-0.6,2.2-0.9,3.4c-0.6,2.4-1.4,5-2.5,8c-2.2,5.9-5.8,13.4-11.3,21c2.4-1.9,3.8-3.2,4.6-4.1
		c0.8-0.9,1.1-1.5,1.5-2.2c0.4-0.7,0.9-1.5,2.2-3c1.3-1.5,3.3-3.6,7-7.2c-3.8,3.3-4.1,2.3-2.8-0.5c1.3-2.8,4.2-7.6,7.1-12.2
		c1.4-2.3,2.8-4.5,3.9-6.5c0.6-1,1-1.8,1.4-2.6c0.2-0.4,0.4-0.7,0.5-1C423.3,100.7,423.2,100.8,423.2,100.8z M236.2,412.2
		c-0.8,0.1-2,0.5-3.3,1c0-0.2,0-0.3,0-0.5c1-0.3,2.1-0.7,3.2-1.1C236.1,411.9,236.1,412.1,236.2,412.2z M206.8,435.7
		C206.8,435.7,206.8,435.7,206.8,435.7C206.8,435.8,206.7,435.8,206.8,435.7C206.7,435.8,206.8,435.8,206.8,435.7z M209.2,318.1
		c-0.8-3.2-1.6-6.4-1.6-6.4c1.6,2,3.7,4.8,5.9,8.2c2.2,3.4,4.7,7.3,7.1,11.4c2,3.4,4,6.9,5.8,10.2c-0.7,0.6-1.4,1.1-2.2,1.7
		c0.2,0.6,1.4,0.7,2.2,1.2c0.8,0.5,1.1,1.4-0.6,3.7c0,0-3.5,0.6-6.9,0.9c-2-2.8-4-5.9-5.7-9.1c-2-3.8-3.7-7.9-4.6-12.1l2.2-3.3
		C210.8,324.5,210,321.3,209.2,318.1z M220.9,227c0.7-4.4,4.1,1.4,2.6-8c-2.3-0.5-2.8-4.9-3-7.7l10-1.5c2-0.3,4-0.4,7.2,0.1l0,1
		c0.1,0,0.2,0,0.3,0c0.2-0.3,0.4-0.6,0.6-0.9c0.7,0.1,1.4,0.3,2.2,0.5l-2.8,16.2c0.5,1.7,1.1,3.4,1.6,5.1l-5.9,4l9.6,6.7
		c2.1,6.4,4.2,13.2,5.6,21.4c-0.8,1.4-1.6,2.9-2.2,4.4l-3.6,7.9l0.9,0.6c-1.1,0.4-2.3,0.7-3.7,0.5c4.9-6.3-1.1-18.6,0.3-31
		c-0.7,6.5-2.7,5-3.4,3.3c0,0,0.8,5.6,1.7,11.1c0.8,5.6,1.6,11.2,1.6,11.2c-3.5-0.7-2.9,4.6-4.6,10.3c3.6-2,4.6,2.2,4.8,8
		c0.2,4,0,8.8,0.1,12.9c-0.5,1-0.8,2-1.3,3c-0.2,0.5-0.3,0.9-0.5,1.4c-1.3-1.3-2.1-4.8-1.3-12.1c-3,5.9-1.2,9.9,0.7,13.8
		c-0.1,0.2-0.1,0.4-0.2,0.6c-0.8,2.5-1.2,5.2-1.5,7.9c-0.1,1.7-0.2,3.5-0.1,5.3c-2.6-4.7-3.8-17.4-6.9-16.5c0,0,1.5,6.9,3,13.7
		c1.2,6,2.5,12,2.8,13.5c-0.1,0.1-0.3,0.2-0.4,0.4c-2.3,0-5.5-3.8-8.1-9.6c-1.4-3.1-2.7-6.9-3.6-11c-0.9-4.1-1.5-8.5-1.5-13
		c1.6-4.7,8.6,3,10.1,2.6c-1.7-2.3-4-16.9-2.9-18.7l2.9,7.5c0.6-5.1-1.1-9.1-2.7-13.4c-1.5-4.3-2.6-8.8-0.8-15
		c0-4.2,5.1-12.9,2.3-13.4c-4.8,7.2-21.3,9.7-25.7,5.6c0.3-1.5,3.4-21.9,5.5-26.9c1.8-3.6,4.5-1.3,7.2,1.2c2.7,2.5,5.3,5.1,6.8,2
		C223.5,232.2,221.5,228.5,220.9,227z M246.5,212.8c0.3,0.2,0.6,0.5,0.8,0.7c-0.1,2-0.4,4.1-1,6.4
		C245.4,218.1,245.6,215.6,246.5,212.8z M236.6,187.1l1.1,0.2l0,0.4c-0.4,0-0.7,0-1.1,0L236.6,187.1z M237.8,205.6l0,1
		c-0.4,0.1-0.7,0.2-1.1,0.4l0-0.7C237,206,237.4,205.8,237.8,205.6z M205.8,150.6c0.2-1.6,0.5-3.2,0.9-4.8c0.4-1.6,1-3.1,1.8-4.6
		c0.8-1.5,1.8-2.9,3.1-4.1c1-1,2.2-1.9,3.5-2.6c0.3,0.2,0.5,0.4,0.8,0.7c2.4,2.5,4.6,5.4,6.9,8.6c0.6,0.9,1.3,1.8,2,2.7l-7.1-2.1
		c-6.8,2.2-1.4,3,0.6,4.5c-3.3,0.5-6.7,1.3-10.2,2.4l-2.4,0.7C205.7,151.5,205.7,151.1,205.8,150.6z M244.9,367.4
		C244.9,367.4,244.9,367.4,244.9,367.4c0.2-0.1,0.4-0.2,0.5-0.3C245.4,367.1,245.2,367.2,244.9,367.4z M232.2,358.9
		c0-1.6,0.5-2.7,1.2-3.3c0,0,0,0.1,0.1,0.1l-1.1,4.2C232.3,359.6,232.2,359.3,232.2,358.9z M227.7,389.8c-0.9-1.6-1.8-3.1-2.7-4.6
		c1.3,1.2,2.7,2.3,4.2,3.3c0.1,0.2,0.1,0.3,0.2,0.5C228.8,389.2,228.3,389.5,227.7,389.8z M290.8,202.9c-2.3,0.7-4.7,1.6-7.1,2.5
		c-1.3-0.5-2.5-1.3-3.8-2.2c1.6-0.5,3.3-1.1,5-2.1l-0.6,3.4c1.6-0.6,4.7-1.9,7.9-2.3c0.3,0.1,0.7,0.2,1,0.3c-0.6,0.4-1.5,1-2.4,1.7
		L290.8,202.9z M208.3,187.1l2.2,0c3.8,0.1,7.6,0,11.3-0.5c-0.1,1.1,0,2.1,1.8,2.6c0.1,0,0.1,0,0.2-0.1l-5.3,3.9
		c-1.6-0.4-2.4-0.3-2.1,1.6l-0.4,0.3C213.8,194.5,210.8,191.2,208.3,187.1z M219.8,211.4c-0.2,0.9-0.4,2.1-0.7,3.6
		c-0.3-1.3-0.6-2.4-0.7-3.4L219.8,211.4z M232.8,418c0-0.8,0-1.8,0-3c1.2-0.2,2.3-0.3,3.7-0.5c0-0.1,0.1-0.1,0.1-0.2
		c0.3,1.7,0.6,3.1,0.8,4.1c0.2,1,0.3,1.6,0.3,1.6C236.7,418.8,234.9,418.3,232.8,418z M327,211.8l-29.2,10.3
		c-3.7,1.3-6.4,2.6-4.6,1.2c-3-0.2-0.9-2.8,3.1-5.3l15.1-9.5l-15.6-0.8c-1.5-0.1-3.2-0.3-4.9-0.5l-0.1-1.7c3.8-0.7,7.6-0.1,11.3,0.8
		l0-1.3L327,211.8z M308.8,106.6c-6.6-0.9-4.3-0.6,0.3-0.2C309,106.5,308.9,106.5,308.8,106.6z"/>
	<path d="M264.7,142c-0.2-0.1-0.3-0.2-0.4-0.2c0,0-0.1,0-0.1,0c0,0,0,0,0,0C264.5,141.9,264.7,142,264.7,142z"/>
	<polygon points="321.9,181.6 321.7,180.3 319.2,182.3 	"/>
	<path d="M318.7,156.7l-0.4-3.5l0,0L318.7,156.7C318.7,156.7,318.7,156.7,318.7,156.7z"/>
	<path d="M321.7,180.3L321.7,180.3l-0.4-3.5c0,0,0,0,0,0L321.7,180.3z"/>
	<path d="M226,226.7c-0.2,2.9-0.7,4.5-1.2,5.6C225.6,232.4,226.2,231,226,226.7z"/>
	<path d="M430.3,96.6c-1,0.1-2,0.2-3.1,0.3c-4.2,0.4-8.3,0.8-8.3,0.8c3.8-0.3,6-0.2,7.6,0c0.4,0,0.8,0.1,1.1,0.1
		c0.2,0,0.3,0.1,0.5,0.1l0.1,0c0,0,0,0,0,0l-0.1,0.2l-0.3,0.3c-0.7,0.9-1.4,1.7-2.1,2.7c1.3-0.9,4.1-3.7,3.5-2
		c0.1-0.2,0.2-0.4,0.3-0.6c0.1-0.3,0.3-0.6,0.5-0.9c0.1-0.2,0.2-0.3,0.3-0.5l0.1-0.3L430.3,96.6C430.4,96.6,430.4,96.6,430.3,96.6
		L430.3,96.6z"/>
	<path d="M429.1,99c-0.4,0.8-0.7,1.3-0.7,1.3C428.8,99.7,429,99.3,429.1,99z"/>
	<path d="M351.7,185.3c-0.3,1.3-1.4,2.3-1.7,3.6l1.5,0.5C354.3,184.7,355.2,180.8,351.7,185.3z"/>
	<path d="M398.5,130.1c1.6-2.6,3-6.1,4.2-9.4c-5.1,2.9-7.1,7.9-10.5,14.6c0.2-0.4,0.4-0.8,0.7-1.2
		C395.1,134.4,396.9,132.8,398.5,130.1z"/>
	<path d="M391.4,136.9c-1.1,2-2.3,4.2-3.8,6.2C389.1,143.7,389.7,140.4,391.4,136.9z"/>
	<path d="M340.1,104.3c0.4,0.1,0.7,0.1,0.9,0c0.3-0.1,0.7-0.2,1-0.3c0.5-0.3,0.8-0.8,1.1-1.2c0.5-0.9,0.8-1.7,2.1-1.2
		c1.4-1,0.1-1.1-2.4-0.8c-0.6,0.1-1.3,0.2-1.9,0.3c-0.4,0.1-0.8,0.3-1.3,0.4c-0.9,0.3-1.8,0.7-2.6,1
		C333.8,104.1,332.2,105.7,340.1,104.3z"/>
	<path d="M388.9,126.6l-4.1,5.3c0,0,1.7-1,3.3-2c1.7-1.1,3.4-2.1,3.4-2.1s-0.6-0.4-1.3-0.6C389.7,126.8,388.9,126.6,388.9,126.6z"/>
	<path d="M362.2,117.4l9.7,0.5c0.4-0.6,2.1-1,4.1-1.4C369.6,116.7,362.7,116.3,362.2,117.4z"/>
	<path d="M385.5,115.5c-2,0.1-6.2,0.4-9.5,1C379.4,116.4,382.8,116.2,385.5,115.5z"/>
	<path d="M392.3,119C392.3,119,392.3,119,392.3,119c-0.2-0.1-0.3-0.1-0.3-0.1l-6.4,0c0,0,2,0.2,4,0.3c0.5,0,1,0.1,1.4,0.1
		c0.1,0,0.2,0,0.3,0l0.2,0c0,0,0.1,0,0.1,0l-0.1,0.1c-0.2,0.2-0.4,0.5-0.5,0.7c-0.6,0.9-1.1,1.4-1.1,1.4s0.7-0.8,1.4-1.6
		c0.2-0.2,0.4-0.4,0.5-0.6c0.1-0.1,0.2-0.2,0.2-0.3L392.3,119L392.3,119z"/>
	<path d="M288.2,130.3c-2.9-0.6-3.2-1.3-4.9-2.4l-0.1,4.4L288.2,130.3z"/>
	<polygon points="208.2,242.6 215.6,244.3 215.3,241.6 	"/>
	<polygon points="168.2,469.7 160.1,471.1 165.8,471.5 	"/>
	<path d="M155.4,480l-3.4-3.6l-3.2,5.6C150.6,481.2,153.8,479.6,155.4,480z"/>
</g>
</svg>
